<?xml version="1.0" encoding="UTF-8"?>
<svg id="Layer_1" data-name="Layer 1" xmlns="http://www.w3.org/2000/svg" xmlns:xlink="http://www.w3.org/1999/xlink" viewBox="0 0 2000 2000">
  <defs>
    <style>
      .cls-1 {
        stroke: url(#linear-gradient-6);
      }

      .cls-1, .cls-2, .cls-3, .cls-4, .cls-5, .cls-6, .cls-7, .cls-8, .cls-9, .cls-10 {
        stroke-miterlimit: 10;
      }

      .cls-1, .cls-2, .cls-3, .cls-4, .cls-5, .cls-7, .cls-8, .cls-9, .cls-10 {
        stroke-width: 17px;
      }

      .cls-1, .cls-2, .cls-3, .cls-5, .cls-11, .cls-6, .cls-8, .cls-10 {
        fill: none;
      }

      .cls-2 {
        stroke: url(#linear-gradient-14);
      }

      .cls-3 {
        stroke: url(#linear-gradient-3);
      }

      .cls-4 {
        fill: url(#linear-gradient-8);
        stroke: url(#linear-gradient-9);
      }

      .cls-5 {
        stroke: url(#linear-gradient-10);
      }

      .cls-12 {
        clip-path: url(#clippath-1);
      }

      .cls-6 {
        stroke: url(#linear-gradient-2);
        stroke-width: 6px;
      }

      .cls-7 {
        fill: url(#linear-gradient-12);
        stroke: url(#linear-gradient-13);
      }

      .cls-13 {
        clip-path: url(#clippath-3);
      }

      .cls-8 {
        stroke: url(#linear-gradient-11);
      }

      .cls-9 {
        fill: url(#linear-gradient-4);
        stroke: url(#linear-gradient-5);
      }

      .cls-14 {
        clip-path: url(#clippath-2);
      }

      .cls-10 {
        stroke: url(#linear-gradient-7);
      }

      .cls-15 {
        fill: url(#linear-gradient);
      }

      .cls-16 {
        clip-path: url(#clippath);
      }
    </style>
    <clipPath id="clippath">
      <path class="cls-11" d="M1003.6,1636.45c-5.47,0-10.94-.04-16.42-.11-108.9-1.48-213.28-17.63-301.85-46.71-47.07-15.45-89.01-34.4-124.65-56.3-38.53-23.68-69.83-50.9-93.02-80.93-35.89-46.45-64.8-116.87-83.62-203.62-17.41-80.25-25.95-172.14-24.7-265.72,1.26-94.79,12.55-186.17,32.64-264.25,22.51-87.49,54.64-154.48,95.51-199.1,44.44-48.51,113.45-87,205.12-114.39,81.17-24.26,177.19-38.53,277.66-41.28,98.35-2.69,195.38,5.73,280.59,24.34,91.57,20,165.71,51.32,214.41,90.56h0c46.98,37.85,85.83,95.02,115.47,169.92,26.24,66.32,44.85,146.82,53.81,232.81,11.32,108.65,7.19,224.83-11.64,327.14-20.21,109.8-55.78,198.32-102.87,255.97-24.01,29.4-56.33,55.88-96.06,78.68-36.75,21.1-79.88,39.1-128.17,53.49-86.95,25.92-187.66,39.51-292.21,39.51ZM1006.11,419.55c-11.39,0-22.81.15-34.31.47-95.63,2.62-186.63,16.09-263.15,38.96-80.69,24.11-142.88,58.2-179.86,98.56-67.45,73.63-110.92,236.97-113.45,426.27-1.19,89.41,6.91,176.93,23.43,253.1,17.06,78.67,42.38,141.35,73.21,181.26,37.64,48.73,103.62,89.62,190.82,118.25,83.25,27.33,181.85,42.52,285.14,43.92,219.57,3.01,411.38-56.29,488.72-151,41.14-50.37,72.66-130.13,91.17-230.68,17.89-97.2,21.81-207.72,11.02-311.19-17.72-170.05-71.93-303.06-148.72-364.93h0c-78.93-63.61-242.89-103-424.02-103Z"/>
    </clipPath>
    <linearGradient id="linear-gradient" x1="315.88" y1="315.85" x2="1684.19" y2="1684.16" gradientUnits="userSpaceOnUse">
      <stop offset="0" stop-color="#ffe445"/>
      <stop offset="1" stop-color="#ff7601"/>
    </linearGradient>
    <linearGradient id="linear-gradient-2" x1="1495.63" y1="1495.34" x2="501.43" y2="501.14" gradientUnits="userSpaceOnUse">
      <stop offset="0" stop-color="#ffe445" stop-opacity=".75"/>
      <stop offset="1" stop-color="#ff7601" stop-opacity=".5"/>
    </linearGradient>
    <linearGradient id="linear-gradient-3" x1="1244.37" y1="1169.32" x2="755.56" y2="680.51" xlink:href="#linear-gradient-2"/>
    <clipPath id="clippath-1">
      <path class="cls-3" d="M865.05,667.73c-18.42-29.25-60.51-30.75-80.97-2.9l-178.71,243.28c-10.19,13.87-12.36,32.07-5.71,47.95l28.77,68.69c16.14,38.54,70.01,40.5,88.91,3.23h0c17.46-34.42,65.99-36.09,85.78-2.96l120.19,201.22c34.66,58.03,118.72,58.03,153.38,0l120.19-201.22c19.79-33.13,68.33-31.45,85.78,2.96h0c18.9,37.26,72.77,35.3,88.91-3.23l28.77-68.69c6.65-15.88,4.48-34.08-5.71-47.95l-178.2-242.59c-20.6-28.04-63.04-26.29-81.25,3.36l-82.79,134.74c-23.17,37.7-77.85,38-101.43.56l-85.93-136.45Z"/>
    </clipPath>
    <linearGradient id="linear-gradient-4" x1="553.65" y1="553.64" x2="1446.37" y2="1446.36" xlink:href="#linear-gradient"/>
    <linearGradient id="linear-gradient-5" x1="1454.87" y1="1454.86" x2="545.15" y2="545.14" xlink:href="#linear-gradient-2"/>
    <linearGradient id="linear-gradient-6" x1="1244.37" y1="1169.32" x2="755.56" y2="680.51" xlink:href="#linear-gradient-2"/>
    <linearGradient id="linear-gradient-7" x1="858.98" y1="1345.64" x2="674.82" y2="1161.48" xlink:href="#linear-gradient-2"/>
    <clipPath id="clippath-2">
      <path class="cls-10" d="M681.27,1299.48c-35.24-57.46-17.23-132.62,40.23-167.86,57.46-35.24,74.18,18.61,109.42,76.07,35.24,57.46,75.67,96.78,18.2,132.02-57.46,35.24-132.62,17.23-167.86-40.23Z"/>
    </clipPath>
    <linearGradient id="linear-gradient-8" x1="553.65" y1="553.64" x2="1446.37" y2="1446.36" xlink:href="#linear-gradient"/>
    <linearGradient id="linear-gradient-9" x1="1454.87" y1="1454.86" x2="545.15" y2="545.14" xlink:href="#linear-gradient-2"/>
    <linearGradient id="linear-gradient-10" x1="858.98" y1="1345.64" x2="674.82" y2="1161.48" xlink:href="#linear-gradient-2"/>
    <linearGradient id="linear-gradient-11" x1="1307.3" y1="1327.74" x2="1158.94" y2="1179.38" xlink:href="#linear-gradient-2"/>
    <clipPath id="clippath-3">
      <path class="cls-8" d="M1318.75,1299.48c35.24-57.46,17.23-132.62-40.23-167.86-57.46-35.24-74.18,18.61-109.42,76.07-35.24,57.46-75.67,96.78-18.2,132.02,57.46,35.24,132.62,17.23,167.86-40.23Z"/>
    </clipPath>
    <linearGradient id="linear-gradient-12" x1="553.65" y1="553.64" x2="1446.37" y2="1446.36" xlink:href="#linear-gradient"/>
    <linearGradient id="linear-gradient-13" x1="1454.87" y1="1454.86" x2="545.15" y2="545.14" xlink:href="#linear-gradient-2"/>
    <linearGradient id="linear-gradient-14" x1="1307.3" y1="1327.74" x2="1158.94" y2="1179.38" xlink:href="#linear-gradient-2"/>
  </defs>
  <g>
    <path d="M1447.67,500.74c-189.97-153.08-767.95-149.46-939.56,37.88-157.57,172.01-158.45,715.27-18.32,896.67,175.6,227.35,830.01,230.37,1008.53,11.77,161.69-197.97,158.6-777.73-50.65-946.32Z"/>
    <g class="cls-16">
      <rect class="cls-15" x="315.88" y="315.85" width="1368.31" height="1368.31"/>
    </g>
    <path class="cls-6" d="M1003.57,1636.45c-5.47,0-10.94-.04-16.42-.11-108.9-1.48-213.28-17.63-301.85-46.71-47.07-15.45-89.01-34.4-124.65-56.3-38.53-23.68-69.83-50.9-93.02-80.93-35.89-46.45-64.8-116.87-83.62-203.62-17.41-80.25-25.95-172.14-24.7-265.72,1.26-94.79,12.55-186.17,32.64-264.25,22.51-87.49,54.64-154.48,95.51-199.1,44.44-48.51,113.45-87,205.12-114.39,81.17-24.26,177.19-38.53,277.66-41.28,98.35-2.69,195.38,5.73,280.59,24.34,91.57,20,165.71,51.32,214.41,90.56h0c46.98,37.85,85.83,95.02,115.47,169.92,26.24,66.32,44.85,146.82,53.81,232.81,11.32,108.65,7.19,224.83-11.64,327.14-20.21,109.8-55.78,198.32-102.87,255.97-24.01,29.4-56.33,55.88-96.06,78.68-36.75,21.1-79.88,39.1-128.17,53.49-86.95,25.92-187.66,39.51-292.21,39.51ZM1006.08,419.55c-11.39,0-22.81.15-34.31.47-95.63,2.62-186.63,16.09-263.15,38.96-80.69,24.11-142.88,58.2-179.86,98.56-67.45,73.63-110.92,236.97-113.45,426.27-1.19,89.41,6.91,176.93,23.43,253.1,17.06,78.67,42.38,141.35,73.21,181.26,37.64,48.73,103.62,89.62,190.82,118.25,83.25,27.33,181.85,42.52,285.14,43.92,219.57,3.01,411.38-56.29,488.72-151,41.14-50.37,72.66-130.13,91.17-230.68,17.89-97.2,21.81-207.72,11.02-311.19-17.72-170.05-71.93-303.06-148.72-364.93h0c-78.93-63.61-242.89-103-424.02-103Z"/>
  </g>
  <g>
    <g>
      <g class="cls-12">
        <rect class="cls-9" x="553.65" y="553.64" width="892.72" height="892.72"/>
      </g>
      <path class="cls-1" d="M865.05,667.73c-18.42-29.25-60.51-30.75-80.97-2.9l-178.71,243.28c-10.19,13.87-12.36,32.07-5.71,47.95l28.77,68.69c16.14,38.54,70.01,40.5,88.91,3.23h0c17.46-34.42,65.99-36.09,85.78-2.96l120.19,201.22c34.66,58.03,118.72,58.03,153.38,0l120.19-201.22c19.79-33.13,68.33-31.45,85.78,2.96h0c18.9,37.26,72.77,35.3,88.91-3.23l28.77-68.69c6.65-15.88,4.48-34.08-5.71-47.95l-178.2-242.59c-20.6-28.04-63.04-26.29-81.25,3.36l-82.79,134.74c-23.17,37.7-77.85,38-101.43.56l-85.93-136.45Z"/>
    </g>
    <g>
      <g class="cls-14">
        <rect class="cls-4" x="553.65" y="553.64" width="892.72" height="892.72"/>
      </g>
      <path class="cls-5" d="M681.27,1299.48c-35.24-57.46-17.23-132.62,40.23-167.86,57.46-35.24,74.18,18.61,109.42,76.07,35.24,57.46,75.67,96.78,18.2,132.02-57.46,35.24-132.62,17.23-167.86-40.23Z"/>
    </g>
    <g>
      <g class="cls-13">
        <rect class="cls-7" x="553.65" y="553.64" width="892.72" height="892.72"/>
      </g>
      <path class="cls-2" d="M1318.75,1299.48c35.24-57.46,17.23-132.62-40.23-167.86-57.46-35.24-74.18,18.61-109.42,76.07-35.24,57.46-75.67,96.78-18.2,132.02,57.46,35.24,132.62,17.23,167.86-40.23Z"/>
    </g>
  </g>
</svg>